<svg version="1.1" id="Layer_1" xmlns="http://www.w3.org/2000/svg" xmlns:xlink="http://www.w3.org/1999/xlink" x="0px" y="0px"
	 width="100%" viewBox="0 0 512 512" enable-background="new 0 0 512 512" xml:space="preserve">
<path fill="#000000" opacity="1.000000" stroke="none" 
	d="
M1.000000,195.000000 
	C1.000000,130.000000 1.000000,65.500000 1.000000,1.000000 
	C171.666672,1.000000 342.333344,1.000000 513.000000,1.000000 
	C513.000000,171.666672 513.000000,342.333344 513.000000,513.000000 
	C342.333344,513.000000 171.666672,513.000000 1.000000,513.000000 
	C1.000000,407.166656 1.000000,301.333344 1.000000,195.000000 
M224.724945,480.002655 
	C240.756653,478.445312 256.788361,476.887939 273.119507,475.301514 
	C273.119507,436.786682 273.119507,399.035706 273.119507,360.887939 
	C283.909332,360.887939 294.320068,360.887939 305.117554,360.887939 
	C305.117554,334.084290 305.117554,307.678223 305.117554,280.928955 
	C342.617310,280.928955 379.719940,280.928955 416.924164,280.928955 
	C415.924438,271.679810 414.875488,262.793823 414.021515,253.889114 
	C412.615173,239.225662 411.334961,224.550095 410.001617,209.879639 
	C408.668243,195.209183 407.334930,180.538712 406.001587,165.868256 
	C404.668243,151.197525 403.241302,136.534271 402.068604,121.850716 
	C401.782013,118.262108 401.490631,114.316162 402.630859,111.030571 
	C409.032349,92.584488 415.903717,74.301949 422.547821,55.939384 
	C426.191620,45.868958 429.703766,35.750900 433.412811,25.265482 
	C431.601105,25.155165 430.318604,24.942184 429.054382,25.021452 
	C419.048065,25.648859 409.045807,26.340261 399.041199,26.995579 
	C388.704681,27.672634 378.371063,28.404428 368.028900,28.982021 
	C349.109711,30.038626 330.192383,31.192459 311.259155,31.901690 
	C304.031464,32.172436 296.739105,31.585936 289.518372,30.927763 
	C282.402313,30.279137 275.357422,28.880497 268.248840,28.110888 
	C259.684875,27.183708 251.086609,26.572800 241.878067,25.770515 
	C246.031342,34.029697 249.833466,41.647873 253.689911,49.238441 
	C256.069519,53.922180 256.720703,58.602787 254.767990,63.691830 
	C252.482010,69.649323 250.589142,75.757668 248.274460,82.536491 
	C243.594818,81.137100 238.920105,79.739189 234.086136,78.293648 
	C236.012665,72.495720 237.566925,67.166344 239.574738,62.013695 
	C240.831238,58.789116 240.818069,56.168671 239.100006,53.003120 
	C235.110779,45.653065 231.567368,38.057598 227.954819,30.508213 
	C226.448410,27.360172 224.560486,26.299156 220.963898,27.434906 
	C210.172409,30.842693 199.155396,32.940674 187.724518,32.024624 
	C181.817017,31.551212 175.889526,31.324381 169.970215,31.001863 
	C157.633148,30.329664 145.298721,29.600088 132.957321,29.018923 
	C117.290207,28.281151 101.619759,27.598776 85.945984,27.022137 
	C73.865211,26.577682 61.777046,26.333908 49.692261,25.997641 
	C49.031231,25.979248 48.370926,25.932802 47.710468,25.896057 
	C40.193066,25.477810 32.675701,25.058901 24.457256,24.601120 
	C29.637356,66.023399 34.684582,106.383186 39.764259,147.002457 
	C43.952637,145.388474 47.207432,143.997696 50.552670,142.876846 
	C55.695019,141.153885 61.139416,137.772156 66.024582,138.407684 
	C74.569855,139.519409 82.787804,143.147263 90.942329,145.659073 
	C89.307053,150.577438 87.951866,154.653397 86.274658,159.697861 
	C80.711334,157.865967 75.196777,155.761749 69.515610,154.309113 
	C66.930847,153.648193 63.800114,153.619797 61.293549,154.446335 
	C54.613171,156.649185 48.080341,159.341782 41.630161,162.162766 
	C40.418037,162.692871 39.258621,164.653549 39.106144,166.065445 
	C38.506161,171.621063 38.471626,177.235672 37.945919,182.801819 
	C36.716949,195.813980 35.276367,208.806030 34.018185,221.815582 
	C33.245296,229.807266 32.730953,237.823959 31.958132,245.815643 
	C30.700071,258.825195 29.275999,271.818695 28.018259,284.828278 
	C27.245647,292.819885 26.697531,300.833038 25.946522,308.826965 
	C25.758804,310.825073 25.176874,312.786133 24.775894,314.765350 
	C35.312153,316.946350 45.110428,318.933807 54.880054,321.053345 
	C55.984890,321.293030 57.880642,322.455750 57.799488,322.888580 
	C56.963787,327.345856 55.796173,331.740906 54.758900,335.997925 
	C45.106583,334.129120 36.176422,332.400116 26.940050,330.611847 
	C30.447912,344.806335 33.335918,358.179565 37.139500,371.287109 
	C39.650707,379.940979 40.487511,388.396454 38.978268,397.244232 
	C36.525982,411.620514 34.336506,426.041473 31.991810,440.436340 
	C30.403702,450.186249 28.634119,459.907715 27.147238,469.672607 
	C26.179413,476.028595 25.573544,482.439667 24.739941,489.371399 
	C29.373514,488.704987 33.081017,488.242889 36.763290,487.629364 
	C49.858814,485.447418 62.948971,483.232788 76.034950,480.994232 
	C87.200592,479.084167 98.421829,477.426910 109.496101,475.080292 
	C116.914932,473.508240 123.330711,473.345581 128.101059,480.485443 
	C129.552414,482.657715 131.600540,484.597443 133.761826,486.080475 
	C135.752991,487.446777 138.343170,489.021179 140.531235,488.839417 
	C152.393372,487.853973 164.204193,486.270569 176.049057,485.052032 
	C186.954315,483.930206 197.886063,483.067200 208.794495,481.974152 
	C213.810379,481.471558 218.798447,480.691711 224.724945,480.002655 
M443.680359,345.000244 
	C450.763977,345.000244 457.847595,345.000244 464.645935,345.000244 
	C464.645935,328.555542 464.645935,312.815857 464.645935,297.351990 
	C416.556519,297.351990 368.821533,297.351990 321.354309,297.351990 
	C321.354309,313.444916 321.354309,329.184631 321.354309,345.315186 
	C329.452271,345.315186 337.198242,345.315186 344.639343,345.315186 
	C344.639343,356.125458 344.639343,366.534027 344.639343,377.326416 
	C325.872498,377.326416 307.465302,377.326416 289.361572,377.326416 
	C289.361572,417.461517 289.361572,457.197571 289.361572,496.643341 
	C358.789612,496.643341 427.855804,496.643341 496.644287,496.643341 
	C496.644287,456.550293 496.644287,416.814331 496.644287,376.683472 
	C477.882538,376.683472 459.475311,376.683472 441.000092,376.683472 
	C441.000092,366.955627 440.943207,357.625519 441.075592,348.298035 
	C441.091309,347.192505 442.142395,346.101624 443.680359,345.000244 
z"/>
<path fill="#FFFFFF" opacity="1.000000" stroke="none" 
	d="
M224.262039,480.020081 
	C218.798447,480.691711 213.810379,481.471558 208.794495,481.974152 
	C197.886063,483.067200 186.954315,483.930206 176.049057,485.052032 
	C164.204193,486.270569 152.393372,487.853973 140.531235,488.839417 
	C138.343170,489.021179 135.752991,487.446777 133.761826,486.080475 
	C131.600540,484.597443 129.552414,482.657715 128.101059,480.485443 
	C123.330711,473.345581 116.914932,473.508240 109.496101,475.080292 
	C98.421829,477.426910 87.200592,479.084167 76.034950,480.994232 
	C62.948971,483.232788 49.858814,485.447418 36.763290,487.629364 
	C33.081017,488.242889 29.373514,488.704987 24.739941,489.371399 
	C25.573544,482.439667 26.179413,476.028595 27.147238,469.672607 
	C28.634119,459.907715 30.403702,450.186249 31.991810,440.436340 
	C34.336506,426.041473 36.525982,411.620514 38.978268,397.244232 
	C40.487511,388.396454 39.650707,379.940979 37.139500,371.287109 
	C33.335918,358.179565 30.447912,344.806335 26.940050,330.611847 
	C36.176422,332.400116 45.106583,334.129120 54.758900,335.997925 
	C55.796173,331.740906 56.963787,327.345856 57.799488,322.888580 
	C57.880642,322.455750 55.984890,321.293030 54.880054,321.053345 
	C45.110428,318.933807 35.312153,316.946350 24.775894,314.765350 
	C25.176874,312.786133 25.758804,310.825073 25.946522,308.826965 
	C26.697531,300.833038 27.245647,292.819885 28.018259,284.828278 
	C29.275999,271.818695 30.700071,258.825195 31.958132,245.815643 
	C32.730953,237.823959 33.245296,229.807266 34.018185,221.815582 
	C35.276367,208.806030 36.716949,195.813980 37.945919,182.801819 
	C38.471626,177.235672 38.506161,171.621063 39.106144,166.065445 
	C39.258621,164.653549 40.418037,162.692871 41.630161,162.162766 
	C48.080341,159.341782 54.613171,156.649185 61.293549,154.446335 
	C63.800114,153.619797 66.930847,153.648193 69.515610,154.309113 
	C75.196777,155.761749 80.711334,157.865967 86.274658,159.697861 
	C87.951866,154.653397 89.307053,150.577438 90.942329,145.659073 
	C82.787804,143.147263 74.569855,139.519409 66.024582,138.407684 
	C61.139416,137.772156 55.695019,141.153885 50.552670,142.876846 
	C47.207432,143.997696 43.952637,145.388474 39.764259,147.002457 
	C34.684582,106.383186 29.637356,66.023399 24.457256,24.601120 
	C32.675701,25.058901 40.193066,25.477810 47.710468,25.896057 
	C48.370926,25.932802 49.031231,25.979248 49.692261,25.997641 
	C61.777046,26.333908 73.865211,26.577682 85.945984,27.022137 
	C101.619759,27.598776 117.290207,28.281151 132.957321,29.018923 
	C145.298721,29.600088 157.633148,30.329664 169.970215,31.001863 
	C175.889526,31.324381 181.817017,31.551212 187.724518,32.024624 
	C199.155396,32.940674 210.172409,30.842693 220.963898,27.434906 
	C224.560486,26.299156 226.448410,27.360172 227.954819,30.508213 
	C231.567368,38.057598 235.110779,45.653065 239.100006,53.003120 
	C240.818069,56.168671 240.831238,58.789116 239.574738,62.013695 
	C237.566925,67.166344 236.012665,72.495720 234.086136,78.293648 
	C238.920105,79.739189 243.594818,81.137100 248.274460,82.536491 
	C250.589142,75.757668 252.482010,69.649323 254.767990,63.691830 
	C256.720703,58.602787 256.069519,53.922180 253.689911,49.238441 
	C249.833466,41.647873 246.031342,34.029697 241.878067,25.770515 
	C251.086609,26.572800 259.684875,27.183708 268.248840,28.110888 
	C275.357422,28.880497 282.402313,30.279137 289.518372,30.927763 
	C296.739105,31.585936 304.031464,32.172436 311.259155,31.901690 
	C330.192383,31.192459 349.109711,30.038626 368.028900,28.982021 
	C378.371063,28.404428 388.704681,27.672634 399.041199,26.995579 
	C409.045807,26.340261 419.048065,25.648859 429.054382,25.021452 
	C430.318604,24.942184 431.601105,25.155165 433.412811,25.265482 
	C429.703766,35.750900 426.191620,45.868958 422.547821,55.939384 
	C415.903717,74.301949 409.032349,92.584488 402.630859,111.030571 
	C401.490631,114.316162 401.782013,118.262108 402.068604,121.850716 
	C403.241302,136.534271 404.668243,151.197525 406.001587,165.868256 
	C407.334930,180.538712 408.668243,195.209183 410.001617,209.879639 
	C411.334961,224.550095 412.615173,239.225662 414.021515,253.889114 
	C414.875488,262.793823 415.924438,271.679810 416.924164,280.928955 
	C379.719940,280.928955 342.617310,280.928955 305.117554,280.928955 
	C305.117554,307.678223 305.117554,334.084290 305.117554,360.887939 
	C294.320068,360.887939 283.909332,360.887939 273.119507,360.887939 
	C273.119507,399.035706 273.119507,436.786682 273.119507,475.301514 
	C256.788361,476.887939 240.756653,478.445312 224.262039,480.020081 
M341.965607,184.291672 
	C354.597260,148.494110 353.045654,111.374863 352.896088,73.369644 
	C286.485870,139.842438 220.881470,205.485291 155.379608,271.230316 
	C153.983093,272.631989 153.130920,275.200623 153.102478,277.239960 
	C152.907349,291.233887 152.993973,305.231781 153.010529,319.228424 
	C153.011978,320.451630 153.161804,321.674652 153.308121,323.886810 
	C204.910355,272.282166 255.807755,221.382385 306.345795,170.841995 
	C310.828705,175.391861 314.760193,179.382080 319.071838,183.758133 
	C247.530472,255.295364 175.711777,327.109894 103.631676,399.185822 
	C106.958855,402.201721 110.141808,405.086914 112.949188,407.631653 
	C111.627800,409.380829 109.943268,410.970673 110.193169,411.380280 
	C112.372963,414.953186 114.816910,418.380798 117.439552,421.644958 
	C117.725647,422.001007 119.778336,421.285492 120.765450,420.671326 
	C125.549881,417.694519 130.179642,414.462769 135.031250,411.604950 
	C136.211639,410.909637 138.444260,410.624451 139.475189,411.279816 
	C145.194931,414.916199 150.815750,418.739014 156.220856,422.827881 
	C159.407059,425.238220 162.054398,425.535187 165.401138,423.166138 
	C171.049744,419.167694 176.868927,415.393799 182.783295,411.800171 
	C184.057556,411.025909 186.506241,410.686768 187.619202,411.395386 
	C193.473129,415.122681 199.140594,419.157440 204.731430,423.277313 
	C207.657700,425.433685 210.237137,425.385406 213.169846,423.374176 
	C219.014526,419.365906 224.893265,415.394379 230.935181,411.697357 
	C232.174667,410.938934 234.614075,410.768738 235.777634,411.491333 
	C241.512604,415.052673 247.004318,419.005768 252.483978,422.753693 
	C255.265121,418.596832 258.014618,414.487274 260.721161,410.441956 
	C252.997192,405.329193 245.262558,400.379547 237.729874,395.139587 
	C234.710358,393.039154 232.425903,392.323700 229.103683,394.886078 
	C223.630264,399.107727 217.761765,402.844116 211.863205,406.464813 
	C210.674973,407.194214 208.241730,407.103699 207.013611,406.355408 
	C200.964035,402.669373 195.132126,398.626740 189.212585,394.726379 
	C186.605423,393.008545 184.477371,392.340088 181.389099,394.799347 
	C175.870453,399.193939 169.771454,402.891937 163.716614,406.552917 
	C162.548874,407.259003 160.122955,407.026947 158.872269,406.258942 
	C152.836487,402.552704 147.029205,398.476654 141.087341,394.614075 
	C138.683960,393.051666 136.569168,392.203461 133.635178,394.586090 
	C129.505264,397.939911 124.668983,400.423920 120.134758,403.279877 
	C120.276054,401.518311 121.018059,400.535889 121.879478,399.672668 
	C142.003464,379.507324 162.108719,359.322937 182.348083,339.273987 
	C183.660751,337.973663 186.006348,337.156525 187.900726,337.100342 
	C195.891769,336.863251 203.897400,336.862762 211.890244,337.067413 
	C215.095963,337.149506 217.369049,336.271759 219.675674,333.933167 
	C235.587799,317.800537 251.863983,302.023651 267.634033,285.755249 
	C283.160248,269.738342 298.872803,253.824966 313.303558,236.846222 
	C326.183105,221.692566 334.797577,203.731171 341.965607,184.291672 
z"/>
<path fill="#FFFFFF" opacity="1.000000" stroke="none" 
	d="
M443.196960,345.002075 
	C442.142395,346.101624 441.091309,347.192505 441.075592,348.298035 
	C440.943207,357.625519 441.000092,366.955627 441.000092,376.683472 
	C459.475311,376.683472 477.882538,376.683472 496.644287,376.683472 
	C496.644287,416.814331 496.644287,456.550293 496.644287,496.643341 
	C427.855804,496.643341 358.789612,496.643341 289.361572,496.643341 
	C289.361572,457.197571 289.361572,417.461517 289.361572,377.326416 
	C307.465302,377.326416 325.872498,377.326416 344.639343,377.326416 
	C344.639343,366.534027 344.639343,356.125458 344.639343,345.315186 
	C337.198242,345.315186 329.452271,345.315186 321.354309,345.315186 
	C321.354309,329.184631 321.354309,313.444916 321.354309,297.351990 
	C368.821533,297.351990 416.556519,297.351990 464.645935,297.351990 
	C464.645935,312.815857 464.645935,328.555542 464.645935,345.000244 
	C457.847595,345.000244 450.763977,345.000244 443.196960,345.002075 
z"/>
<path fill="#000000" opacity="1.000000" stroke="none" 
	d="
M341.746643,184.635620 
	C334.797577,203.731171 326.183105,221.692566 313.303558,236.846222 
	C298.872803,253.824966 283.160248,269.738342 267.634033,285.755249 
	C251.863983,302.023651 235.587799,317.800537 219.675674,333.933167 
	C217.369049,336.271759 215.095963,337.149506 211.890244,337.067413 
	C203.897400,336.862762 195.891769,336.863251 187.900726,337.100342 
	C186.006348,337.156525 183.660751,337.973663 182.348083,339.273987 
	C162.108719,359.322937 142.003464,379.507324 121.879478,399.672668 
	C121.018059,400.535889 120.276054,401.518311 120.134758,403.279877 
	C124.668983,400.423920 129.505264,397.939911 133.635178,394.586090 
	C136.569168,392.203461 138.683960,393.051666 141.087341,394.614075 
	C147.029205,398.476654 152.836487,402.552704 158.872269,406.258942 
	C160.122955,407.026947 162.548874,407.259003 163.716614,406.552917 
	C169.771454,402.891937 175.870453,399.193939 181.389099,394.799347 
	C184.477371,392.340088 186.605423,393.008545 189.212585,394.726379 
	C195.132126,398.626740 200.964035,402.669373 207.013611,406.355408 
	C208.241730,407.103699 210.674973,407.194214 211.863205,406.464813 
	C217.761765,402.844116 223.630264,399.107727 229.103683,394.886078 
	C232.425903,392.323700 234.710358,393.039154 237.729874,395.139587 
	C245.262558,400.379547 252.997192,405.329193 260.721161,410.441956 
	C258.014618,414.487274 255.265121,418.596832 252.483978,422.753693 
	C247.004318,419.005768 241.512604,415.052673 235.777634,411.491333 
	C234.614075,410.768738 232.174667,410.938934 230.935181,411.697357 
	C224.893265,415.394379 219.014526,419.365906 213.169846,423.374176 
	C210.237137,425.385406 207.657700,425.433685 204.731430,423.277313 
	C199.140594,419.157440 193.473129,415.122681 187.619202,411.395386 
	C186.506241,410.686768 184.057556,411.025909 182.783295,411.800171 
	C176.868927,415.393799 171.049744,419.167694 165.401138,423.166138 
	C162.054398,425.535187 159.407059,425.238220 156.220856,422.827881 
	C150.815750,418.739014 145.194931,414.916199 139.475189,411.279816 
	C138.444260,410.624451 136.211639,410.909637 135.031250,411.604950 
	C130.179642,414.462769 125.549881,417.694519 120.765450,420.671326 
	C119.778336,421.285492 117.725647,422.001007 117.439552,421.644958 
	C114.816910,418.380798 112.372963,414.953186 110.193169,411.380280 
	C109.943268,410.970673 111.627800,409.380829 112.949188,407.631653 
	C110.141808,405.086914 106.958855,402.201721 103.631676,399.185822 
	C175.711777,327.109894 247.530472,255.295364 319.071838,183.758133 
	C314.760193,179.382080 310.828705,175.391861 306.345795,170.841995 
	C255.807755,221.382385 204.910355,272.282166 153.308121,323.886810 
	C153.161804,321.674652 153.011978,320.451630 153.010529,319.228424 
	C152.993973,305.231781 152.907349,291.233887 153.102478,277.239960 
	C153.130920,275.200623 153.983093,272.631989 155.379608,271.230316 
	C220.881470,205.485291 286.485870,139.842438 352.896088,73.369644 
	C353.045654,111.374863 354.597260,148.494110 341.746643,184.635620 
M117.791824,403.837646 
	C117.715782,404.145844 117.639740,404.454071 117.563698,404.762268 
	C117.953148,404.733154 118.342590,404.704010 118.732040,404.674896 
	C118.678062,404.305878 118.624077,403.936859 117.791824,403.837646 
z"/>
<path fill="#FFFFFF" opacity="1.000000" stroke="none" 
	d="
M118.180954,403.702759 
	C118.624077,403.936859 118.678062,404.305878 118.732040,404.674896 
	C118.342590,404.704010 117.953148,404.733154 117.563698,404.762268 
	C117.639740,404.454071 117.715782,404.145844 118.180954,403.702759 
z"/>
</svg>